<?xml version="1.0" encoding="UTF-8"?>
<svg id="Layer_1" xmlns="http://www.w3.org/2000/svg" version="1.1" viewBox="0 0 200 170">
  <!-- Generator: Adobe Illustrator 29.6.1, SVG Export Plug-In . SVG Version: 2.1.1 Build 9)  -->
  <g>
    <g>
      <circle cx="100" cy="24.31" r="17.72" style="fill: #fff; stroke: #000; stroke-dasharray: 2; stroke-miterlimit: 10;"/>
      <circle cx="100" cy="24.31" r="2.17" style="fill: #fff; stroke: #000; stroke-miterlimit: 10;"/>
    </g>
    <g>
      <circle cx="31.04" cy="24.31" r="17.72" style="fill: #fff; stroke: #000; stroke-dasharray: 2; stroke-miterlimit: 10;"/>
      <circle cx="31.04" cy="24.31" r="2.17" style="fill: #fff; stroke: #000; stroke-miterlimit: 10;"/>
    </g>
    <g>
      <circle cx="168.96" cy="24.31" r="17.72" style="fill: #fff; stroke: #000; stroke-dasharray: 2; stroke-miterlimit: 10;"/>
      <circle cx="168.96" cy="24.31" r="2.17" style="fill: #fff; stroke: #000; stroke-miterlimit: 10;"/>
    </g>
  </g>
  <g>
    <g>
      <circle cx="31.04" cy="144.14" r="17.72" style="fill: #fff; stroke: #000; stroke-dasharray: 2; stroke-miterlimit: 10;"/>
      <circle cx="31.04" cy="144.14" r="2.17" style="fill: #fff; stroke: #000; stroke-miterlimit: 10;"/>
    </g>
    <g>
      <circle cx="168.96" cy="144.14" r="17.72" style="fill: #fff; stroke: #000; stroke-dasharray: 2; stroke-miterlimit: 10;"/>
      <circle cx="168.96" cy="144.14" r="2.17" style="fill: #fff; stroke: #000; stroke-miterlimit: 10;"/>
    </g>
  </g>
  <g>
    <rect x="73.29" y="119.54" width="54.69" height="49.2" rx="8.5" ry="8.5" style="fill: #fff; stroke: #000; stroke-miterlimit: 10; stroke-width: .75px;"/>
    <g>
      <path d="M110.25,128.15c.8-.8.8-2.09,0-2.89s-2.09-.8-2.89,0l-6.72,6.73-6.73-6.72c-.8-.8-2.09-.8-2.89,0-.8.8-.8,2.09,0,2.89l6.73,6.72-6.72,6.73c-.8.8-.8,2.09,0,2.89.8.8,2.09.8,2.89,0l6.72-6.73,6.73,6.72c.8.8,2.09.8,2.89,0s.8-2.09,0-2.89l-6.73-6.72,6.72-6.73Z"/>
      <g>
        <path d="M93.63,160.35c-.38.19-1.15.38-2.13.38-2.28,0-3.99-1.44-3.99-4.09s1.71-4.25,4.22-4.25c1.01,0,1.64.22,1.92.36l-.25.85c-.4-.19-.96-.34-1.63-.34-1.89,0-3.15,1.21-3.15,3.33,0,1.98,1.14,3.25,3.11,3.25.64,0,1.28-.13,1.7-.34l.22.83Z"/>
        <path d="M94.9,152.1h1.05v8.52h-1.05v-8.52Z"/>
        <path d="M102.99,157.66c0,2.15-1.49,3.08-2.89,3.08-1.57,0-2.78-1.15-2.78-2.99,0-1.94,1.27-3.08,2.88-3.08s2.8,1.21,2.8,2.99ZM98.38,157.72c0,1.27.73,2.23,1.76,2.23s1.76-.95,1.76-2.25c0-.98-.49-2.23-1.74-2.23s-1.79,1.15-1.79,2.25Z"/>
        <path d="M104.18,159.54c.31.2.86.42,1.39.42.77,0,1.13-.38,1.13-.86s-.3-.78-1.08-1.07c-1.04-.37-1.54-.95-1.54-1.64,0-.94.76-1.7,2-1.7.59,0,1.1.17,1.43.36l-.26.77c-.23-.14-.65-.34-1.19-.34-.62,0-.97.36-.97.79,0,.48.35.7,1.1.98,1.01.38,1.52.89,1.52,1.75,0,1.02-.79,1.74-2.17,1.74-.64,0-1.22-.16-1.63-.4l.26-.8Z"/>
        <path d="M109.66,157.9c.02,1.43.94,2.02,1.99,2.02.76,0,1.21-.13,1.61-.3l.18.75c-.37.17-1.01.36-1.93.36-1.79,0-2.85-1.18-2.85-2.93s1.03-3.13,2.72-3.13c1.89,0,2.4,1.67,2.4,2.73,0,.22-.02.38-.04.49h-4.08ZM112.75,157.15c.01-.67-.28-1.71-1.46-1.71-1.07,0-1.54.98-1.62,1.71h3.08Z"/>
      </g>
    </g>
  </g>
  <g>
    <g>
      <g>
        <circle cx="31.04" cy="82.39" r="17.72" style="fill: #fff; stroke: #000; stroke-dasharray: 2; stroke-miterlimit: 10;"/>
        <circle cx="31.04" cy="82.39" r="2.17" style="fill: #fff; stroke: #000; stroke-miterlimit: 10;"/>
      </g>
      <g>
        <circle cx="168.96" cy="82.39" r="17.72" style="fill: #fff; stroke: #000; stroke-dasharray: 2; stroke-miterlimit: 10;"/>
        <circle cx="168.96" cy="82.39" r="2.17" style="fill: #fff; stroke: #000; stroke-miterlimit: 10;"/>
      </g>
    </g>
    <g>
      <circle cx="100" cy="82.39" r="17.72" style="fill: none; stroke: #000; stroke-dasharray: 2; stroke-miterlimit: 10;"/>
      <path d="M100,70.29c-6.68,0-12.1,5.42-12.1,12.1s5.42,12.1,12.1,12.1,12.1-5.42,12.1-12.1-5.42-12.1-12.1-12.1ZM100,84.56c-1.2,0-2.17-.97-2.17-2.17s.97-2.17,2.17-2.17,2.17.97,2.17,2.17-.97,2.17-2.17,2.17Z"/>
      <path d="M85.97,77.03c-7.67,0-14.07,5.44-15.55,12.67-5.16.67-9.15,5.07-9.15,10.41,0,.04,0,.07,0,.11-3.39.57-5.97,3.51-5.97,7.07,0,3.96,3.21,7.17,7.17,7.17,2.91,0,5.41-1.73,6.53-4.22.88.24,1.81.38,2.77.38,3,0,5.7-1.26,7.62-3.28,2.01.92,4.23,1.44,6.58,1.44,8.77,0,15.87-7.11,15.87-15.87s-7.11-15.87-15.87-15.87Z" style="fill: none; stroke: #000; stroke-miterlimit: 10; stroke-width: .75px;"/>
      <path d="M62.47,113.71c-3.54,0-6.42-2.88-6.42-6.42,0-3.14,2.25-5.8,5.35-6.33l.63-.11v-.75c-.01-4.87,3.64-9.03,8.48-9.66l.53-.07.11-.52c1.43-6.99,7.66-12.07,14.82-12.07,8.34,0,15.12,6.78,15.12,15.12s-6.78,15.12-15.12,15.12c-2.16,0-4.27-.46-6.27-1.37l-.49-.22-.37.39c-1.87,1.97-4.38,3.05-7.07,3.05-.85,0-1.71-.12-2.57-.35l-.62-.17-.26.58c-1.04,2.3-3.34,3.78-5.85,3.78Z" style="fill: none; stroke: #fff; stroke-miterlimit: 10; stroke-width: .75px;"/>
    </g>
  </g>
</svg>