<?xml version="1.0" encoding="UTF-8"?>
<svg id="Layer_1" xmlns="http://www.w3.org/2000/svg" version="1.1" viewBox="0 0 701.52 594.96">
  <!-- Generator: Adobe Illustrator 29.6.1, SVG Export Plug-In . SVG Version: 2.1.1 Build 9)  -->
  <g>
    <path d="M512.55,297.28c45.01-45.01,76.72-111.88,6.22-167.39s-155.1-3.93-192.12,32.13c-32.63,31.78-46.6,39.29-46.6,39.29l39.43,26.6s19.25-16.67,42.44-35.81,72.31-62.79,127.88-26.79,10.49,77.07-15.65,101.58-44.23,40.84-44.23,40.84l41.78,27.77,40.84-38.22Z" style="fill: #9fa5aa;"/>
    <path d="M525.8,164.41s26.55,23.84,22.01,52.42c0,0-.01.03-.01.05-6.02,29.41-28,55.44-42.33,69.79l-33.76,31.59-6.83-7.3,33.63-31.47c16.12-16.18,42.71-48.11,40.76-81.09-.7-11.81-5.22-23.18-13.47-33.99Z" style="fill: #5e6163;"/>
    <path d="M539.27,198.4c1.95,32.98-24.64,64.91-40.76,81.09l-33.63,31.47-14.25-6.71c7.89-7.23,19.39-17.84,33-30.6l1.04-.97c17.84-16.73,44.31-41.51,44.88-69.91h.01c.69-14.27-1.27-28.78-7.82-42.34,1.4,1.26,2.76,2.59,4.06,3.98,8.25,10.81,12.77,22.18,13.47,33.99Z" style="fill: #e6e7e8;"/>
    <path d="M520.65,158.26c.38.72.75,1.45,1.09,2.17-18-16.34-43.79-22.88-74.75-22.91-39.22,0-70.39,25.87-89.01,41.32l-2.43,2.01c-14.73,12.16-27.98,23.42-35.68,30l-8.84-5.96c9.52-7.74,20.35-17.51,32.24-29.09,7.7-7.51,24.04-21.87,46.94-33.75,21.17-10.99,41.56-16.56,60.6-16.56,20.31,0,39.02,6.63,55.62,19.7,5.4,4.25,10.14,8.61,14.22,13.07Z" style="fill: #5e6163;"/>
    <path d="M520.65,158.26c-4.08-4.46-8.82-8.82-14.22-13.07-16.6-13.07-35.31-19.7-55.62-19.7-19.04,0-39.43,5.57-60.6,16.56-22.9,11.88-39.24,26.24-46.94,33.75-11.89,11.58-22.72,21.35-32.24,29.09l-8.68-5.86c7.93-6.3,19.1-15.94,33.94-30.4,8.1-7.89,27.08-21.72,51.49-33.48,25.89-12.47,42.19-14.45,62.85-14.45,9.53,0,27.12,4.19,35.75,8.46s26.6,14.45,34.27,29.1Z" style="fill: #e6e7e8;"/>
  </g>
  <path d="M110.91,331.86s59.98,35.82,114.95,79.13,103.29,91.63,103.29,91.63v26.66s-85.8-55.81-120.78-84.97-94.13-83.3-94.13-83.3l-3.33-29.15Z" style="fill: #ad9153;"/>
  <polygon points="498.43 337.33 329.15 502.62 329.15 529.28 501.59 362.57 498.43 337.33" style="fill: #dbcb9e;"/>
  <g>
    <path d="M397.21,259.07c-39.86-29.57-119.58-84.86-119.58-84.86l-166.72,157.65s59.98,35.82,114.95,79.13c3.81,3,7.58,6.02,11.31,9.05l160.04-160.97Z" style="fill: #c3a763;"/>
    <path d="M431.98,285.42c-12.07-9.28-24.18-18.49-34.77-26.34-65.49,48.02-120.77,100.78-160.04,160.97,12.39,10.06,24.27,20.2,35.14,29.75l159.66-164.38Z" style="fill: #d0b676;"/>
    <path d="M431.98,285.42c33.37,25.66,66.46,51.92,66.46,51.92l-169.28,165.29s-23.72-23.72-56.84-52.82c47.22-66.05,99.78-122.08,159.66-164.38Z" style="fill: #ebdcac;"/>
  </g>
  <ellipse cx="225.32" cy="434.2" rx="15.16" ry="46.9" transform="translate(-255.55 344.44) rotate(-52)" style="fill: #896f3b;"/>
  <rect x="223.1" y="420.96" width="5.46" height="27.48" transform="translate(707.42 524.37) rotate(128)" style="fill: #1b0000;"/>
  <ellipse cx="242.44" cy="447.68" rx="7" ry="17.71" transform="translate(-259.6 363.1) rotate(-52)" style="fill: #1b0000;"/>
</svg>