<?xml version="1.0" encoding="UTF-8"?>
<svg id="Layer_1" xmlns="http://www.w3.org/2000/svg" version="1.1" viewBox="0 0 701.52 594.96">
  <!-- Generator: Adobe Illustrator 29.6.1, SVG Export Plug-In . SVG Version: 2.1.1 Build 9)  -->
  <path d="M590.05,270.32c60.83-60.83,103.69-151.21,8.41-226.23-95.28-75.02-209.62-5.31-259.66,43.42-44.1,42.95-62.98,53.1-62.98,53.1l53.29,35.95s26.02-22.53,57.36-48.4c31.34-25.87,97.73-84.86,172.83-36.21,75.1,48.66,14.18,104.16-21.15,137.29-35.33,33.13-59.78,55.2-59.78,55.2l56.47,37.53,55.2-51.66h.01Z" style="fill: #9fa5aa; stroke: #000; stroke-miterlimit: 10; stroke-width: 7px;"/>
  <path d="M607.96,90.74s35.88,32.22,29.75,70.85c0,0-.01.04-.01.07-8.14,39.75-37.84,74.93-57.21,94.32l-45.63,42.69-9.23-9.87,45.45-42.53c21.79-21.87,57.72-65.02,55.09-109.6-.95-15.96-7.05-31.33-18.21-45.94h0Z" style="fill: #5e6163;"/>
  <path d="M626.16,136.68c2.64,44.57-33.3,87.73-55.09,109.6l-45.45,42.53-19.26-9.07c10.66-9.77,26.21-24.11,44.6-41.36l1.41-1.31c24.11-22.61,59.89-56.1,60.66-94.49h.01c.93-19.29-1.72-38.9-10.57-57.22,1.89,1.7,3.73,3.5,5.49,5.38,11.15,14.61,17.26,29.98,18.21,45.94h0Z" style="fill: #e6e7e8;"/>
  <path d="M601,82.43c.51.97,1.01,1.96,1.47,2.93-24.33-22.08-59.18-30.92-101.03-30.96-53.01,0-95.13,34.96-120.3,55.85l-3.28,2.72c-19.91,16.43-37.82,31.65-48.22,40.55l-11.95-8.06c12.87-10.46,27.5-23.67,43.57-39.32,10.41-10.15,32.49-29.56,63.44-45.61,28.61-14.85,56.17-22.38,81.9-22.38,27.45,0,52.74,8.96,75.17,26.63,7.3,5.74,13.7,11.64,19.22,17.66h0Z" style="fill: #5e6163;"/>
  <path d="M601,82.43c-5.51-6.03-11.92-11.92-19.22-17.66-22.44-17.66-47.72-26.63-75.17-26.63-25.73,0-53.29,7.53-81.9,22.38-30.95,16.06-53.03,35.46-63.44,45.61-16.07,15.65-30.71,28.86-43.57,39.32l-11.73-7.92c10.72-8.51,25.81-21.54,45.87-41.09,10.95-10.66,36.6-29.36,69.59-45.25,34.99-16.85,57.02-19.53,84.94-19.53,12.88,0,36.65,5.66,48.32,11.43,11.66,5.77,35.95,19.53,46.32,39.33h0Z" style="fill: #e6e7e8;"/>
  <path d="M47.22,317.05s81.06,48.41,155.36,106.95c74.29,58.53,139.6,123.84,139.6,123.84v36.03s-115.96-75.43-163.24-114.84c-47.28-39.41-127.22-112.58-127.22-112.58l-4.5-39.4h0Z" style="fill: #ad9153; stroke: #000; stroke-linecap: round; stroke-linejoin: round; stroke-width: 7px;"/>
  <polygon points="570.97 324.44 342.18 547.84 342.18 583.87 575.24 358.56 570.97 324.44" style="fill: #dbcb9e; stroke: #000; stroke-linecap: round; stroke-linejoin: round; stroke-width: 7px;"/>
  <g>
    <path d="M434.16,218.67c-53.87-39.96-161.62-114.69-161.62-114.69L47.22,317.05s81.06,48.41,155.36,106.95c5.15,4.05,10.24,8.14,15.29,12.23l216.3-217.56h0Z" style="fill: #c3a763;"/>
    <path d="M481.16,254.29c-16.31-12.54-32.68-24.99-46.99-35.6-88.51,64.9-163.22,136.21-216.3,217.56,16.75,13.6,32.8,27.3,47.49,40.21l215.79-222.16h.01Z" style="fill: #d0b676;"/>
    <path d="M481.16,254.29c45.1,34.68,89.82,70.17,89.82,70.17l-228.79,223.39s-32.06-32.06-76.82-71.39c63.82-89.27,134.86-164.99,215.79-222.16h0Z" style="fill: #ebdcac;"/>
  </g>
  <path d="M265.36,476.45c44.76,39.33,76.82,71.39,76.82,71.39l228.79-223.39s-44.72-35.49-89.82-70.17h-.01.01c-16.31-12.54-32.68-24.99-46.99-35.6h0c-53.87-39.98-161.62-114.7-161.62-114.7L47.21,317.04s81.06,48.41,155.36,106.95c5.15,4.05,10.24,8.14,15.29,12.23h0c16.75,13.61,32.8,27.31,47.49,40.22h.01Z" style="fill: none; stroke: #000; stroke-linecap: round; stroke-linejoin: round; stroke-width: 7px;"/>
  <ellipse cx="201.86" cy="455.37" rx="19.2" ry="59.39" transform="translate(-281.26 334.08) rotate(-52)" style="fill: #896f3b;"/>
  <path d="M224.91,461.41c-7.8-6.1-15.96-9.45-20.92-9.03l-19.71-15.4-4.54,5.82,19.7,15.39c.77,4.91,6.01,12.03,13.82,18.13,10.42,8.14,21.47,11.4,24.69,7.28,3.22-4.12-2.62-14.05-13.04-22.19Z" style="fill: #1b0000;"/>
</svg>