<svg version="1.1" id="Layer_1" xmlns="http://www.w3.org/2000/svg" xmlns:xlink="http://www.w3.org/1999/xlink" x="0px" y="0px"
	 width="195.4px" height="207.3px" viewBox="0 0 195.4 207.3" style="enable-background:new 0 0 195.4 207.3;" xml:space="preserve" fill = "white">
<g>
	<path d="M181.7,192.1c-0.7-9.7-2.5-35.3-26-45.5c-12.8-5.5-11.2-22.3-9.8-29.4c7,1,13.6-4.1,12.7-10.4c-7.8-60.3-39.9-88-54.1-97.6
		c-4-2.7-9.7-2.7-13.7,0c-14.2,9.5-46.2,37.2-54.1,97.1c-0.8,6.4,5.8,11.5,12.9,10.4c1.3,7.5,2.3,23.3-10,28.6
		c-23.5,10.2-25.3,35.8-26,45.5c0,0.6-0.1,1.1-0.1,1.5c-0.2,3,1.8,5.7,4.7,6.3c0.4,0.1,0.8,0.1,1.3,0.1c2.5,0,4.8-1.6,5.6-4
		c0.1-0.2,8.6-23.4,27.8-26.2c13.2-1.9,22.3-7.9,28.5-16c1.1,2.1,2.4,4.2,4.1,6.1c2.8,3.1,2.6,5,2.6,5.6c-0.4,5-8.1,11.2-14.4,16.2
		c-1.7,1.4-3.5,2.8-5.1,4.2c-2,1.7-2.7,4.6-1.6,7c1,2.2,3.1,3.6,5.5,3.6c0.3,0,0.5,0,0.8,0c0.4,0,9.7-1.3,19.7-4.5
		c14.8-4.7,23.4-11.5,25.6-19.9c1.1-4,1.4-7.5,1.3-10.6c5.5,4.8,12.7,8.3,22.3,9.8c19.2,2.8,27.7,26,27.8,26.2c0.9,2.4,3.2,4,5.7,4
		c0.4,0,0.8,0,1.3-0.1c2.9-0.6,5-3.3,4.7-6.4C181.8,193.2,181.8,192.7,181.7,192.1z M114.5,128.9c-6.6,0-12.5-3.1-16.3-7.8
		c-1.3-1.6-3.8-1.6-5.2,0c-3.8,4.8-9.7,7.8-16.3,7.8c-12,0-21.7-10.1-21-22.2c0.6-10.9,9.7-19.6,20.6-19.8c6.8-0.1,12.8,3,16.7,7.8
		c1.3,1.6,3.8,1.6,5.2,0c3.9-4.9,10-7.9,16.7-7.8c10.9,0.2,20,9,20.6,19.8C136.1,118.8,126.5,128.9,114.5,128.9z"/>
	<path d="M82,109.8c-2.2-0.4-3.9-2.2-4.2-4.4c-0.3-1.8,0.3-3.6,1.4-4.7c1-1,0.3-2.7-1.1-2.9c-0.9-0.1-1.9-0.1-2.9,0
		c-4.6,0.6-8.3,4.4-8.8,9.1c-0.6,6.1,4.2,11.3,10.2,11.3c4.1,0,7.6-2.4,9.2-5.8c0.6-1.3-0.4-2.7-1.9-2.5
		C83.4,109.9,82.7,109.9,82,109.8z"/>
	<path d="M120.2,109.8c-2.2-0.4-3.9-2.2-4.2-4.4c-0.3-1.8,0.3-3.6,1.4-4.7c1-1,0.3-2.7-1.1-2.9c-0.9-0.1-1.9-0.1-2.9,0
		c-4.6,0.6-8.3,4.4-8.8,9.1c-0.6,6.1,4.2,11.3,10.2,11.3c4.1,0,7.6-2.4,9.2-5.8c0.6-1.3-0.4-2.7-1.9-2.5
		C121.6,109.9,120.9,109.9,120.2,109.8z"/>
</g>
</svg>