<?xml version="1.0" encoding="UTF-8"?>
<svg xmlns="http://www.w3.org/2000/svg" version="1.1" viewBox="0 0 195.4 207.3">
  <defs>
    <style>
      .cls-1 {
        fill: #8f53c9;
      }
    </style>
  </defs>
  <!-- Generator: Adobe Illustrator 28.7.0, SVG Export Plug-In . SVG Version: 1.2.0 Build 136)  -->
  <g>
    <g id="Layer_1">
      <g>
        <path class="cls-1" d="M181.7,192.1c-.7-9.7-2.5-35.3-26-45.5-12.8-5.5-11.2-22.3-9.8-29.4,7,1,13.6-4.1,12.7-10.4-7.8-60.3-39.9-88-54.1-97.6-4-2.7-9.7-2.7-13.7,0-14.2,9.5-46.2,37.2-54.1,97.1-.8,6.4,5.8,11.5,12.9,10.4,1.3,7.5,2.3,23.3-10,28.6-23.5,10.2-25.3,35.8-26,45.5,0,.6-.1,1.1-.1,1.5-.2,3,1.8,5.7,4.7,6.3.4.1.8.1,1.3.1,2.5,0,4.8-1.6,5.6-4,.1-.2,8.6-23.4,27.8-26.2,13.2-1.9,22.3-7.9,28.5-16,1.1,2.1,2.4,4.2,4.1,6.1,2.8,3.1,2.6,5,2.6,5.6-.4,5-8.1,11.2-14.4,16.2-1.7,1.4-3.5,2.8-5.1,4.2-2,1.7-2.7,4.6-1.6,7,1,2.2,3.1,3.6,5.5,3.6h.8c.4,0,9.7-1.3,19.7-4.5,14.8-4.7,23.4-11.5,25.6-19.9,1.1-4,1.4-7.5,1.3-10.6,5.5,4.8,12.7,8.3,22.3,9.8,19.2,2.8,27.7,26,27.8,26.2.9,2.4,3.2,4,5.7,4s.8,0,1.3-.1c2.9-.6,5-3.3,4.7-6.4.1-.5.1-1,0-1.6ZM114.5,128.9c-6.6,0-12.5-3.1-16.3-7.8-1.3-1.6-3.8-1.6-5.2,0-3.8,4.8-9.7,7.8-16.3,7.8-12,0-21.7-10.1-21-22.2.6-10.9,9.7-19.6,20.6-19.8,6.8,0,12.8,3,16.7,7.8,1.3,1.6,3.8,1.6,5.2,0,3.9-4.9,10-7.9,16.7-7.8,10.9.2,20,9,20.6,19.8.6,12.1-9,22.2-21,22.2Z"/>
        <path class="cls-1" d="M82,109.8c-2.2-.4-3.9-2.2-4.2-4.4-.3-1.8.3-3.6,1.4-4.7s.3-2.7-1.1-2.9c-.9,0-1.9,0-2.9,0-4.6.6-8.3,4.4-8.8,9.1-.6,6.1,4.2,11.3,10.2,11.3s7.6-2.4,9.2-5.8c.6-1.3-.4-2.7-1.9-2.5-.5,0-1.2,0-1.9,0Z"/>
        <path class="cls-1" d="M120.2,109.8c-2.2-.4-3.9-2.2-4.2-4.4-.3-1.8.3-3.6,1.4-4.7s.3-2.7-1.1-2.9c-.9,0-1.9,0-2.9,0-4.6.6-8.3,4.4-8.8,9.1-.6,6.1,4.2,11.3,10.2,11.3s7.6-2.4,9.2-5.8c.6-1.3-.4-2.7-1.9-2.5-.5,0-1.2,0-1.9,0Z"/>
      </g>
    </g>
  </g>
</svg>